<svg xmlns="http://www.w3.org/2000/svg" width="64" height="64" viewBox="0 0 64 64">
  <defs>
    <linearGradient id="rack" x1="0" y1="0" x2="0" y2="1">
      <stop offset="0" stop-color="#a4ee27" />
      <stop offset="1" stop-color="#76b900" />
    </linearGradient>
    <linearGradient id="ib" x1="0" y1="0" x2="1" y2="1">
      <stop offset="0" stop-color="#6cb8ff" />
      <stop offset="1" stop-color="#4ea1ff" />
    </linearGradient>
  </defs>
  <rect x="0" y="0" width="64" height="64" rx="12" fill="#0d1320" />
  <g fill="url(#rack)" opacity="0.9">
    <rect x="10" y="10" width="14" height="44" rx="2" />
    <rect x="40" y="10" width="14" height="44" rx="2" />
  </g>
  <g stroke="url(#ib)" stroke-width="2" fill="none" opacity="0.9">
    <path d="M 24 22 L 40 22" />
    <path d="M 24 32 L 40 32" />
    <path d="M 24 42 L 40 42" />
  </g>
  <g fill="#a4ee27">
    <circle cx="17" cy="16" r="1.4" />
    <circle cx="17" cy="22" r="1.4" />
    <circle cx="17" cy="28" r="1.4" />
    <circle cx="17" cy="34" r="1.4" />
    <circle cx="17" cy="40" r="1.4" />
    <circle cx="17" cy="46" r="1.4" />
    <circle cx="47" cy="16" r="1.4" />
    <circle cx="47" cy="22" r="1.4" />
    <circle cx="47" cy="28" r="1.4" />
    <circle cx="47" cy="34" r="1.4" />
    <circle cx="47" cy="40" r="1.4" />
    <circle cx="47" cy="46" r="1.4" />
  </g>
</svg>
